<svg xmlns="http://www.w3.org/2000/svg" viewBox="0 0 1200 630" width="1200" height="630" role="img" aria-label="Best Free AI Image Generators">
<defs>
<linearGradient id="bg" x1="0" y1="0" x2="1" y2="1"><stop offset="0%" stop-color="#0B1024"/><stop offset="100%" stop-color="#05070F"/></linearGradient>
<radialGradient id="o1" cx="80%" cy="45%" r="50%"><stop offset="0%" stop-color="#F472B6" stop-opacity="0.50"/><stop offset="100%" stop-color="#F472B6" stop-opacity="0"/></radialGradient>
<radialGradient id="o2" cx="0%" cy="100%" r="65%"><stop offset="0%" stop-color="#7C3AED" stop-opacity="0.40"/><stop offset="100%" stop-color="#7C3AED" stop-opacity="0"/></radialGradient>
<linearGradient id="acc" x1="0" y1="0" x2="1" y2="1"><stop offset="0%" stop-color="#FBCFE8"/><stop offset="100%" stop-color="#F472B6"/></linearGradient>
<linearGradient id="fm" x1="0" y1="0" x2="1" y2="1"><stop offset="0%" stop-color="#7AA2FF"/><stop offset="50%" stop-color="#C084FC"/><stop offset="100%" stop-color="#00D4FF"/></linearGradient>
<pattern id="grid" width="40" height="40" patternUnits="userSpaceOnUse"><circle cx="1" cy="1" r="1.2" fill="#ffffff" fill-opacity="0.07"/></pattern>
</defs>
<rect width="1200" height="630" fill="url(#bg)"/>
<rect width="1200" height="630" fill="url(#grid)"/>
<rect width="1200" height="630" fill="url(#o1)"/>
<rect width="1200" height="630" fill="url(#o2)"/>
<g font-family="'Segoe UI', Inter, Roboto, 'Helvetica Neue', Arial, sans-serif">
<rect x="850" y="190" width="220" height="180" rx="20" fill="#fff" fill-opacity="0.08" stroke="url(#acc)" stroke-width="3" transform="rotate(-10 960 280)"/><rect x="830" y="220" width="240" height="200" rx="20" fill="url(#acc)" fill-opacity="0.9"/><circle cx="1010" cy="265" r="22" fill="#fff" fill-opacity="0.9"/><path d="M845 405 L925 315 L985 375 L1015 345 L1055 405 Z" fill="#07101f" fill-opacity="0.45"/>
<rect x="92" y="96" rx="20" height="40" width="170" fill="#F472B6" fill-opacity="0.18" stroke="#F472B6" stroke-opacity="0.7"/>
<circle cx="113" cy="116" r="5" fill="#FBCFE8"/>
<text x="126" y="124" font-size="20" font-weight="700" fill="#FBCFE8">AI Images</text>
<text x="92" y="241" font-size="72" font-weight="800" fill="#FFFFFF" letter-spacing="-1.5">Best Free AI</text><text x="92" y="319" font-size="72" font-weight="800" fill="#FFFFFF" letter-spacing="-1.5">Image</text><text x="92" y="396" font-size="72" font-weight="800" fill="#FFFFFF" letter-spacing="-1.5">Generators</text>
<rect x="92" y="428" width="140" height="7" rx="3.5" fill="url(#acc)"/>
<rect x="92" y="488" width="54" height="54" rx="14" fill="#0C1428" stroke="url(#fm)" stroke-width="2"/>
<text x="119" y="523" font-size="21" font-weight="900" fill="url(#fm)" text-anchor="middle">FM</text>
<text x="162" y="512" font-size="23" font-weight="800" fill="#EEF1FF">FuturMind AI</text>
<text x="162" y="537" font-size="17" font-weight="500" fill="#98A0C3">Beginner Guide 2026</text>
</g>
</svg>