<svg xmlns="http://www.w3.org/2000/svg" viewBox="0 0 1200 630" width="1200" height="630" role="img" aria-label="AI Tools for Content Creation">
<defs>
<linearGradient id="bg" x1="0" y1="0" x2="1" y2="1"><stop offset="0%" stop-color="#0B1024"/><stop offset="100%" stop-color="#05070F"/></linearGradient>
<radialGradient id="o1" cx="80%" cy="45%" r="50%"><stop offset="0%" stop-color="#8B5CF6" stop-opacity="0.50"/><stop offset="100%" stop-color="#8B5CF6" stop-opacity="0"/></radialGradient>
<radialGradient id="o2" cx="0%" cy="100%" r="65%"><stop offset="0%" stop-color="#7C3AED" stop-opacity="0.40"/><stop offset="100%" stop-color="#7C3AED" stop-opacity="0"/></radialGradient>
<linearGradient id="acc" x1="0" y1="0" x2="1" y2="1"><stop offset="0%" stop-color="#F0ABFC"/><stop offset="100%" stop-color="#8B5CF6"/></linearGradient>
<linearGradient id="fm" x1="0" y1="0" x2="1" y2="1"><stop offset="0%" stop-color="#7AA2FF"/><stop offset="50%" stop-color="#C084FC"/><stop offset="100%" stop-color="#00D4FF"/></linearGradient>
<pattern id="grid" width="40" height="40" patternUnits="userSpaceOnUse"><circle cx="1" cy="1" r="1.2" fill="#ffffff" fill-opacity="0.07"/></pattern>
</defs>
<rect width="1200" height="630" fill="url(#bg)"/>
<rect width="1200" height="630" fill="url(#grid)"/>
<rect width="1200" height="630" fill="url(#o1)"/>
<rect width="1200" height="630" fill="url(#o2)"/>
<g font-family="'Segoe UI', Inter, Roboto, 'Helvetica Neue', Arial, sans-serif">
<rect x="830" y="170" width="260" height="290" rx="24" fill="#fff" fill-opacity="0.06" stroke="url(#acc)" stroke-width="3"/><rect x="855" y="195" width="210" height="110" rx="14" fill="url(#acc)" fill-opacity="0.8"/><rect x="855" y="330" width="210" height="14" rx="7" fill="#fff" fill-opacity="0.7"/><rect x="855" y="360" width="165" height="14" rx="7" fill="#fff" fill-opacity="0.7"/><rect x="855" y="390" width="120" height="14" rx="7" fill="#fff" fill-opacity="0.7"/><rect x="855" y="420" width="75" height="14" rx="7" fill="#fff" fill-opacity="0.7"/><path d="M1080 175 L1092 205 L1122 217 L1092 229 L1080 259 L1068 229 L1038 217 L1068 205 Z" fill="#fff"/>
<rect x="92" y="96" rx="20" height="40" width="142" fill="#8B5CF6" fill-opacity="0.18" stroke="#8B5CF6" stroke-opacity="0.7"/>
<circle cx="113" cy="116" r="5" fill="#F0ABFC"/>
<text x="126" y="124" font-size="20" font-weight="700" fill="#F0ABFC">Content</text>
<text x="92" y="241" font-size="72" font-weight="800" fill="#FFFFFF" letter-spacing="-1.5">AI Tools for</text><text x="92" y="319" font-size="72" font-weight="800" fill="#FFFFFF" letter-spacing="-1.5">Content</text><text x="92" y="396" font-size="72" font-weight="800" fill="#FFFFFF" letter-spacing="-1.5">Creation</text>
<rect x="92" y="428" width="140" height="7" rx="3.5" fill="url(#acc)"/>
<rect x="92" y="488" width="54" height="54" rx="14" fill="#0C1428" stroke="url(#fm)" stroke-width="2"/>
<text x="119" y="523" font-size="21" font-weight="900" fill="url(#fm)" text-anchor="middle">FM</text>
<text x="162" y="512" font-size="23" font-weight="800" fill="#EEF1FF">FuturMind AI</text>
<text x="162" y="537" font-size="17" font-weight="500" fill="#98A0C3">Top Tools 2026</text>
</g>
</svg>